<svg fill="none" xmlns="http://www.w3.org/2000/svg" viewBox="0 0 35 39">
  <path d="M27.547 33.313a2.563 2.563 0 10-5.125 0 2.563 2.563 0 005.125 0zm-3.844 0a1.281 1.281 0 112.562 0 1.281 1.281 0 01-2.562 0z" fill="#D32323"/>
  <path d="M32.745 32.555a.64.64 0 00-.72.548l-.553 4.053h-9.69a.64.64 0 100 1.282h10.25a.64.64 0 00.634-.555l.629-4.606a.642.642 0 00-.55-.722zM34.435 23.282a.64.64 0 00-.482-.22h-3.01l1.074-5.645a.63.63 0 000-.227l.295-1.375.957 1.595-.77 3.616a.64.64 0 001.252.268l.828-3.863a.635.635 0 00-.077-.464l-1.922-3.203a.642.642 0 00-1.175.192l-.527 2.444-2.455-.982a.642.642 0 00-.874.513l-.531 4.252-.428-.107-.324-4.112a.64.64 0 00-.167-.374l.128-1.65.61-.182 1.688.9a.64.64 0 10.604-1.13l-1.922-1.024a.641.641 0 00-.486-.049l-1.281.384a.64.64 0 00-.455.563l-.08.99-.75-.751a.642.642 0 00-.964.069l-.77 1.024v-.64a1.922 1.922 0 00-1.921-1.922h-1.281v-.64a1.922 1.922 0 00-1.922-1.923h-3.203V6.58l4.91-3.273a.64.64 0 00.177-.889L17.76.285a.64.64 0 00-.889-.177L11.107 3.95a1.917 1.917 0 00-.856 1.6v4.058H7.047a1.922 1.922 0 00-1.922 1.922v.641H3.844a1.922 1.922 0 00-1.922 1.922v1.281c0 .013.384 3.375.384 3.375a.64.64 0 101.273-.145l-.299-2.59h5.048a.64.64 0 000-1.28H3.203v-.641a.64.64 0 01.64-.64H20.5a.64.64 0 01.64.64v.64H10.89a.64.64 0 000 1.282h10.57l-.191.256a.64.64 0 00-.128.438l.192 2.309-.232-.655a.64.64 0 00-.395-.392l-1.898-.652a.641.641 0 00-.814.398l-.347 1.008-.396-1.02a.64.64 0 00-.595-.409h-2.562a.64.64 0 00-.602.862l.4 1.082c-.147-.01-.29-.022-.439-.022H7.047a7.014 7.014 0 00-3.886 1.17.641.641 0 00.709 1.068 5.738 5.738 0 013.177-.957h6.406a5.773 5.773 0 015.73 5.125H1.317a5.73 5.73 0 01.921-2.536.64.64 0 00-1.068-.705A7.019 7.019 0 000 26.266a.64.64 0 00.64.64h.081c.11.454.335.87.654 1.21-.059.233-.09.472-.094.712.001.83.325 1.626.904 2.22a1.883 1.883 0 00-.786 2.265H.641a.64.64 0 00-.641.64v1.281a3.207 3.207 0 003.203 3.204h1.922a.64.64 0 000-1.282H3.203a1.922 1.922 0 01-1.922-1.922v-.64h10.07l.32.4a.642.642 0 001.001 0l2.37-2.963h2.255a.64.64 0 010 1.282h-1.41a.64.64 0 000 1.28h3.332v.641a1.922 1.922 0 01-1.922 1.922h-9.61a.64.64 0 000 1.282h9.61a3.207 3.207 0 003.203-3.204v-1.28a.64.64 0 00-.64-.641h-.76a1.883 1.883 0 00-.785-2.264c.579-.595.903-1.391.904-2.22a3.113 3.113 0 00-.08-.675c.377-.315.623-.76.686-1.248h.034a.613.613 0 00.118-.023 7.047 7.047 0 005.007 1.945c3.262 0 5.961-1.96 6.357-4.484h1.878l-.848 6.219a.64.64 0 001.27.173l.947-6.946a.641.641 0 00-.153-.508zM11.531 5.55a.64.64 0 01.285-.533L17.05 1.53l.711 1.066-4.662 3.107a.641.641 0 00-.286.533v3.374h-1.28V5.55zm-5.125 6.622v-.64a.64.64 0 01.64-.641h10.25a.64.64 0 01.642.64v.641H6.405zm19.816 9.138l1.295.32-.326 5.534c-.425.153-.865.26-1.313.32l.344-6.174zm-2.45-6.24l1.233 1.232.293 3.659a.573.573 0 00-.053.023.64.64 0 00-.257.48l-.392 7.062a6.496 6.496 0 01-1.282-.204L22.44 16.85l1.332-1.78zm-8.759 3.508h1.205l.577 1.486a7.002 7.002 0 00-1.45-.58l-.332-.906zm2.905 10.052c.01.065.017.132.02.198a1.922 1.922 0 01-1.922 1.922H4.484a1.922 1.922 0 01-1.913-1.842l.059.03a2.727 2.727 0 002.427 0l1.03-.513a.71.71 0 01.638 0l1.352.676a2.003 2.003 0 001.784 0l1.35-.678a.71.71 0 01.637 0l1.352.676a2.002 2.002 0 001.784 0l1.352-.676a.71.71 0 01.637 0c.293.145.617.216.945.207zM3.203 33.313a.64.64 0 010-1.282h6.098l1.025 1.282H3.203zm8.969.256l-1.23-1.538h2.46l-1.23 1.538zm6.069-6.323a.671.671 0 01-.073.034h-.015c-.009.003-.013.01-.021.013a.69.69 0 01-.584-.018 2.003 2.003 0 00-1.783 0l-1.35.678a.71.71 0 01-.638 0l-1.352-.676a2.002 2.002 0 00-1.784 0l-1.352.675a.71.71 0 01-.637 0L7.3 27.277a2.002 2.002 0 00-1.784 0l-1.03.512a1.439 1.439 0 01-1.28 0l-.492-.242a1.419 1.419 0 01-.63-.64h16.438a.699.699 0 01-.281.338zm2.21-1.78a6.996 6.996 0 00-.98-2.852l-.859-2.748.388-1.129 1 .344 1.754 4.953.23 2.759a4.462 4.462 0 01-1.533-1.328zm8.064 1.017l.313-5.305a.64.64 0 00-.484-.659l-.072-.019.449-3.582 1.941.777-1.581 8.309a4.524 4.524 0 01-.566.478z" fill="#D32323"/>
  <path d="M11.531 23.703a.64.64 0 100-1.281.64.64 0 000 1.281zM8.969 23.063a.64.64 0 100-1.282.64.64 0 000 1.282zM7.047 24.344a.64.64 0 100-1.281.64.64 0 000 1.28zM16.656 24.344a.64.64 0 100-1.281.64.64 0 000 1.28zM4.484 23.703a.64.64 0 100-1.281.64.64 0 000 1.281zM14.094 23.063a.64.64 0 100-1.282.64.64 0 000 1.282z" fill="#D32323"/>
</svg>